<svg xmlns="http://www.w3.org/2000/svg">

<svg viewBox="0 0 24 24" fill="none" id="delete">
    <path d="M20.5001 6H3.5" stroke="#ffffff" stroke-width="1.5" stroke-linecap="round"/>
    <path d="M18.8332 8.5L18.3732 15.3991C18.1962 18.054 18.1077 19.3815 17.2427 20.1907C16.3777 21 15.0473 21 12.3865 21H11.6132C8.95235 21 7.62195 21 6.75694 20.1907C5.89194 19.3815 5.80344 18.054 5.62644 15.3991L5.1665 8.5" stroke="#ffffff" stroke-width="1.5" stroke-linecap="round"/>
    <path d="M9.5 11L10 16" stroke="#ffffff" stroke-width="1.5" stroke-linecap="round"/>
    <path d="M14.5 11L14 16" stroke="#ffffff" stroke-width="1.5" stroke-linecap="round"/>
    <path d="M6.5 6C6.55588 6 6.58382 6 6.60915 5.99936C7.43259 5.97849 8.15902 5.45491 8.43922 4.68032C8.44784 4.65649 8.45667 4.62999 8.47434 4.57697L8.57143 4.28571C8.65431 4.03708 8.69575 3.91276 8.75071 3.8072C8.97001 3.38607 9.37574 3.09364 9.84461 3.01877C9.96213 3 10.0932 3 10.3553 3H13.6447C13.9068 3 14.0379 3 14.1554 3.01877C14.6243 3.09364 15.03 3.38607 15.2493 3.8072C15.3043 3.91276 15.3457 4.03708 15.4286 4.28571L15.5257 4.57697C15.5433 4.62992 15.5522 4.65651 15.5608 4.68032C15.841 5.45491 16.5674 5.97849 17.3909 5.99936C17.4162 6 17.4441 6 17.5 6" stroke="#ffffff" stroke-width="1.5"/>
</svg>

<symbol viewBox="0 0 24 24" fill="none" id='pen'>
    <path d="M14.3601 4.07866L15.2869 3.15178C16.8226 1.61607 19.3125 1.61607 20.8482 3.15178C22.3839 4.68748 22.3839 7.17735 20.8482 8.71306L19.9213 9.63993M14.3601 4.07866C14.3601 4.07866 14.4759 6.04828 16.2138 7.78618C17.9517 9.52407 19.9213 9.63993 19.9213 9.63993M14.3601 4.07866L12 6.43872M19.9213 9.63993L14.6607 14.9006L11.5613 18L11.4001 18.1612C10.8229 18.7383 10.5344 19.0269 10.2162 19.2751C9.84082 19.5679 9.43469 19.8189 9.00498 20.0237C8.6407 20.1973 8.25352 20.3263 7.47918 20.5844L4.19792 21.6782M4.19792 21.6782L3.39584 21.9456C3.01478 22.0726 2.59466 21.9734 2.31063 21.6894C2.0266 21.4053 1.92743 20.9852 2.05445 20.6042L2.32181 19.8021M4.19792 21.6782L2.32181 19.8021M2.32181 19.8021L3.41556 16.5208C3.67368 15.7465 3.80273 15.3593 3.97634 14.995C4.18114 14.5653 4.43213 14.1592 4.7249 13.7838C4.97308 13.4656 5.26166 13.1771 5.83882 12.5999L8.5 9.93872" stroke="#ffffff" stroke-width="1.5" stroke-linecap="round"/>
</symbol>

<symbol viewBox="0 0 24 24" fill="none" id='check'>
    <path d="M10.5 15.25C10.307 15.2353 10.1276 15.1455 9.99998 15L6.99998 12C6.93314 11.8601 6.91133 11.7029 6.93756 11.55C6.96379 11.3971 7.03676 11.2562 7.14643 11.1465C7.2561 11.0368 7.39707 10.9638 7.54993 10.9376C7.70279 10.9114 7.86003 10.9332 7.99998 11L10.47 13.47L19 5.00004C19.1399 4.9332 19.2972 4.91139 19.45 4.93762C19.6029 4.96385 19.7439 5.03682 19.8535 5.14649C19.9632 5.25616 20.0362 5.39713 20.0624 5.54999C20.0886 5.70286 20.0668 5.86009 20 6.00004L11 15C10.8724 15.1455 10.6929 15.2353 10.5 15.25Z" fill="#000000"/>
    <path d="M12 21C10.3915 20.9974 8.813 20.5638 7.42891 19.7443C6.04481 18.9247 4.90566 17.7492 4.12999 16.34C3.54037 15.29 3.17596 14.1287 3.05999 12.93C2.87697 11.1721 3.2156 9.39921 4.03363 7.83249C4.85167 6.26578 6.1129 4.9746 7.65999 4.12003C8.71001 3.53041 9.87134 3.166 11.07 3.05003C12.2641 2.92157 13.4719 3.03725 14.62 3.39003C14.7224 3.4105 14.8195 3.45215 14.9049 3.51232C14.9903 3.57248 15.0622 3.64983 15.116 3.73941C15.1698 3.82898 15.2043 3.92881 15.2173 4.03249C15.2302 4.13616 15.2214 4.2414 15.1913 4.34146C15.1612 4.44152 15.1105 4.53419 15.0425 4.61352C14.9745 4.69286 14.8907 4.75712 14.7965 4.80217C14.7022 4.84723 14.5995 4.87209 14.4951 4.87516C14.3907 4.87824 14.2867 4.85946 14.19 4.82003C13.2186 4.52795 12.1987 4.43275 11.19 4.54003C10.193 4.64212 9.22694 4.94485 8.34999 5.43003C7.50512 5.89613 6.75813 6.52088 6.14999 7.27003C5.52385 8.03319 5.05628 8.91361 4.77467 9.85974C4.49307 10.8059 4.40308 11.7987 4.50999 12.78C4.61208 13.777 4.91482 14.7431 5.39999 15.62C5.86609 16.4649 6.49084 17.2119 7.23999 17.82C8.00315 18.4462 8.88357 18.9137 9.8297 19.1953C10.7758 19.4769 11.7686 19.5669 12.75 19.46C13.747 19.3579 14.713 19.0552 15.59 18.57C16.4349 18.1039 17.1818 17.4792 17.79 16.73C18.4161 15.9669 18.8837 15.0864 19.1653 14.1403C19.4469 13.1942 19.5369 12.2014 19.43 11.22C19.4201 11.1169 19.4307 11.0129 19.461 10.9139C19.4914 10.8149 19.5409 10.7228 19.6069 10.643C19.6728 10.5631 19.7538 10.497 19.8453 10.4485C19.9368 10.3999 20.0369 10.3699 20.14 10.36C20.2431 10.3502 20.3471 10.3607 20.4461 10.3911C20.5451 10.4214 20.6372 10.471 20.717 10.5369C20.7969 10.6028 20.863 10.6839 20.9115 10.7753C20.9601 10.8668 20.9901 10.9669 21 11.07C21.1821 12.829 20.842 14.6026 20.0221 16.1695C19.2022 17.7363 17.9389 19.0269 16.39 19.88C15.3288 20.4938 14.1495 20.8755 12.93 21C12.62 21 12.3 21 12 21Z" fill="#000000"/>
</symbol>

<symbol viewBox="0 0 24 24" id='location'>
    <path d="M19.0074 5.02083C17.2556 3.14583 14.6793 2 12 2C9.3207 2 6.74444 3.04167 4.99259 5.02083C3.54989 6.6875 2.82854 8.77083 3.03464 10.8542C3.03464 11.2708 3.13769 11.6875 3.24074 12C4.16819 16.375 8.9085 20.2292 10.9695 21.6875C11.2786 21.8958 11.5878 22 12 22C12.4122 22 12.7214 21.8958 13.0305 21.6875C14.9885 20.2292 19.8318 16.375 20.7593 12C20.8623 11.6875 20.8623 11.2708 20.9654 10.8542C21.1715 8.77083 20.4501 6.6875 19.0074 5.02083ZM12 13.9792C10.4542 13.9792 9.1146 12.7292 9.1146 11.0625C9.1146 9.39583 10.3512 8.14583 12 8.14583C13.6488 8.14583 14.8854 9.39583 14.8854 11.0625C14.8854 12.7292 13.5458 13.9792 12 13.9792Z" />
</symbol>

<symbol viewBox="0 0 512 512"  id='email'>
	<path d="M440.917,67.925H71.083C31.827,67.925,0,99.752,0,139.008v233.984c0,39.256,31.827,71.083,71.083,71.083
		h369.834c39.255,0,71.083-31.827,71.083-71.083V139.008C512,99.752,480.172,67.925,440.917,67.925z M178.166,321.72l-99.54,84.92
		c-7.021,5.992-17.576,5.159-23.567-1.869c-5.992-7.021-5.159-17.576,1.87-23.567l99.54-84.92c7.02-5.992,17.574-5.159,23.566,1.87
		C186.027,305.174,185.194,315.729,178.166,321.72z M256,289.436c-13.314-0.033-26.22-4.457-36.31-13.183l0.008,0.008l-0.032-0.024
		c0.008,0.008,0.017,0.008,0.024,0.016L66.962,143.694c-6.98-6.058-7.723-16.612-1.674-23.583c6.057-6.98,16.612-7.723,23.582-1.674
		l152.771,132.592c3.265,2.906,8.645,5.004,14.359,4.971c5.706,0.017,10.995-2.024,14.44-5.028l0.074-0.065l152.615-132.469
		c6.971-6.049,17.526-5.306,23.583,1.674c6.048,6.97,5.306,17.525-1.674,23.583l-152.77,132.599
		C282.211,284.929,269.322,289.419,256,289.436z M456.948,404.771c-5.992,7.028-16.547,7.861-23.566,1.869l-99.54-84.92
		c-7.028-5.992-7.861-16.546-1.869-23.566c5.991-7.029,16.546-7.861,23.566-1.87l99.54,84.92
		C462.107,387.195,462.94,397.75,456.948,404.771z"/>
</symbol>

<symbol  viewBox="0 0 24 24" stroke="none"  id='phone'>
    <path d="M16.5562 12.9062L16.1007 13.359C16.1007 13.359 15.0181 14.4355 12.0631 11.4972C9.10812 8.55901 10.1907 7.48257 10.1907 7.48257L10.4775 7.19738C11.1841 6.49484 11.2507 5.36691 10.6342 4.54348L9.37326 2.85908C8.61028 1.83992 7.13596 1.70529 6.26145 2.57483L4.69185 4.13552C4.25823 4.56668 3.96765 5.12559 4.00289 5.74561C4.09304 7.33182 4.81071 10.7447 8.81536 14.7266C13.0621 18.9492 17.0468 19.117 18.6763 18.9651C19.1917 18.9171 19.6399 18.6546 20.0011 18.2954L21.4217 16.883C22.3806 15.9295 22.1102 14.2949 20.8833 13.628L18.9728 12.5894C18.1672 12.1515 17.1858 12.2801 16.5562 12.9062Z"/>
</symbol>

<symbol viewBox="0 0 24 24" fill="none" id='logged-user'>
    <path  d="M18 13C17.06 13 16.19 13.33 15.5 13.88C14.58 14.61 14 15.74 14 17C14 17.75 14.21 18.46 14.58 19.06C15.27 20.22 16.54 21 18 21C19.01 21 19.93 20.63 20.63 20C20.94 19.74 21.21 19.42 21.42 19.06C21.79 18.46 22 17.75 22 17C22 14.79 20.21 13 18 13ZM20.07 16.57L17.94 18.54C17.8 18.67 17.61 18.74 17.43 18.74C17.24 18.74 17.05 18.67 16.9 18.52L15.91 17.53C15.62 17.24 15.62 16.76 15.91 16.47C16.2 16.18 16.68 16.18 16.97 16.47L17.45 16.95L19.05 15.47C19.35 15.19 19.83 15.21 20.11 15.51C20.39 15.81 20.37 16.28 20.07 16.57Z" fill="#292D32"/>
    <path  d="M21.0901 21.5C21.0901 21.78 20.8701 22 20.5901 22H3.41016C3.13016 22 2.91016 21.78 2.91016 21.5C2.91016 17.36 6.99015 14 12.0002 14C13.0302 14 14.0302 14.14 14.9502 14.41C14.3602 15.11 14.0002 16.02 14.0002 17C14.0002 17.75 14.2101 18.46 14.5801 19.06C14.7801 19.4 15.0401 19.71 15.3401 19.97C16.0401 20.61 16.9702 21 18.0002 21C19.1202 21 20.1302 20.54 20.8502 19.8C21.0102 20.34 21.0901 20.91 21.0901 21.5Z" fill="none"/>
    <path  d="M12 12C14.7614 12 17 9.76142 17 7C17 4.23858 14.7614 2 12 2C9.23858 2 7 4.23858 7 7C7 9.76142 9.23858 12 12 12Z" fill="none"/>
</symbol>

<symbol  viewBox="0 0 24 24" stroke="none" id ='logout'>
    <path d="M5.07692 5.92648C5.07692 4.38908 6.33971 3.14278 7.89744 3.14278H12C12.4248 3.14278 12.7692 3.48268 12.7692 3.90197C12.7692 4.32126 12.4248 4.66116 12 4.66116H7.89744C7.18938 4.66116 6.61539 5.22766 6.61539 5.92648V6.93873C6.61539 7.35802 6.27099 7.69792 5.84615 7.69792C5.42132 7.69792 5.07692 7.35802 5.07692 6.93873V5.92648ZM5.84615 16.3021C6.27099 16.3021 6.61539 16.642 6.61539 17.0613V18.0735C6.61539 18.7723 7.18938 19.3388 7.89744 19.3388H12C12.4248 19.3388 12.7692 19.6788 12.7692 20.098C12.7692 20.5173 12.4248 20.8572 12 20.8572H7.89744C6.33971 20.8572 5.07692 19.6109 5.07692 18.0735V17.0613C5.07692 16.642 5.42132 16.3021 5.84615 16.3021Z" />
    <path d="M12.7692 4.78618C12.7692 3.90491 13.6592 3.29355 14.4966 3.59962L19.6248 5.47416C20.1277 5.658 20.4615 6.13139 20.4615 6.66071V17.3393C20.4615 17.8686 20.1277 18.342 19.6248 18.5258L14.4966 20.4004C13.6592 20.7065 12.7692 20.0951 12.7692 19.2138V4.78618ZM15.0309 2.17576C13.1887 1.5024 11.2308 2.84738 11.2308 4.78618V19.2138C11.2308 21.1526 13.1887 22.4976 15.0309 21.8242L20.1591 19.9497C21.2656 19.5452 22 18.5038 22 17.3393V6.66071C22 5.4962 21.2656 4.45475 20.1591 4.0503L15.0309 2.17576Z"/>
    <path d="M5.36444 9.43867C5.06404 9.14218 4.57699 9.14218 4.27658 9.43867L2.2253 11.4632C1.9249 11.7597 1.9249 12.2403 2.2253 12.5368L4.27658 14.5613C4.57699 14.8578 5.06404 14.8578 5.36444 14.5613C5.66484 14.2649 5.66484 13.7842 5.36444 13.4877L4.62632 12.7592H8.92308C9.34791 12.7592 9.69231 12.4193 9.69231 12C9.69231 11.5807 9.34791 11.2408 8.92308 11.2408H4.62632L5.36444 10.5123C5.66484 10.2158 5.66484 9.73515 5.36444 9.43867Z" />
</symbol>

<symbol viewBox="0 0 16 16" id ='arrow-return'>
  <path fill-rule="evenodd" d="M1.5 1.5A.5.5 0 0 0 1 2v4.8a2.5 2.5 0 0 0 2.5 2.5h9.793l-3.347 3.346a.5.5 0 0 0 .708.708l4.2-4.2a.5.5 0 0 0 0-.708l-4-4a.5.5 0 0 0-.708.708L13.293 8.3H3.5A1.5 1.5 0 0 1 2 6.8V2a.5.5 0 0 0-.5-.5z"/>
</symbol>

<symbol  viewBox="-3 0 262 262" id="google">
	<path d="M255.878,133.451 C255.878,122.717 255.007,114.884 253.122,106.761 L130.55,106.761 L130.55,155.209 L202.497,155.209 C201.047,167.249 193.214,185.381 175.807,197.565 L175.563,199.187 L214.318,229.21 L217.003,229.478 C241.662,206.704 255.878,173.196 255.878,133.451" fill="#4285F4"></path>
	<path d="M130.55,261.1 C165.798,261.1 195.389,249.495 217.003,229.478 L175.807,197.565 C164.783,205.253 149.987,210.62 130.55,210.62 C96.027,210.62 66.726,187.847 56.281,156.37 L54.75,156.5 L14.452,187.687 L13.925,189.152 C35.393,231.798 79.49,261.1 130.55,261.1" fill="#34A853"></path>
	<path d="M56.281,156.37 C53.525,148.247 51.93,139.543 51.93,130.55 C51.93,121.556 53.525,112.853 56.136,104.73 L56.063,103 L15.26,71.312 L13.925,71.947 C5.077,89.644 0,109.517 0,130.55 C0,151.583 5.077,171.455 13.925,189.152 L56.281,156.37" fill="#FBBC05"></path>
	<path d="M130.55,50.479 C155.064,50.479 171.6,61.068 181.029,69.917 L217.873,33.943 C195.245,12.91 165.798,0 130.55,0 C79.49,0 35.393,29.301 13.925,71.947 L56.136,104.73 C66.726,73.253 96.027,50.479 130.55,50.479" fill="#EB4335"></path>
</symbol>

<symbol viewBox="0 0 455.731 455.731" id="twitter">
	<rect x="0" y="0" style="fill:#50ABF1;" width="455.731" height="455.731"/>
	<path style="fill:#FFFFFF;" d="M60.377,337.822c30.33,19.236,66.308,30.368,104.875,30.368c108.349,0,196.18-87.841,196.18-196.18
		c0-2.705-0.057-5.39-0.161-8.067c3.919-3.084,28.157-22.511,34.098-35c0,0-19.683,8.18-38.947,10.107
		c-0.038,0-0.085,0.009-0.123,0.009c0,0,0.038-0.019,0.104-0.066c1.775-1.186,26.591-18.079,29.951-38.207
		c0,0-13.922,7.431-33.415,13.932c-3.227,1.072-6.605,2.126-10.088,3.103c-12.565-13.41-30.425-21.78-50.25-21.78
		c-38.027,0-68.841,30.805-68.841,68.803c0,5.362,0.617,10.581,1.784,15.592c-5.314-0.218-86.237-4.755-141.289-71.423
		c0,0-32.902,44.917,19.607,91.105c0,0-15.962-0.636-29.733-8.864c0,0-5.058,54.416,54.407,68.329c0,0-11.701,4.432-30.368,1.272
		c0,0,10.439,43.968,63.271,48.077c0,0-41.777,37.74-101.081,28.885L60.377,337.822z"/>
</symbol>

<symbol viewBox="0 0 455.731 455.731" id="skype">
	<rect x="0" y="0" style="fill:#15ACE5;" width="455.731" height="455.731"/>
	<path style="fill:#FFFFFF;" d="M379.742,257.242c1.77-9.097,2.708-18.492,2.708-28.107c0-80.82-65.518-146.338-146.338-146.338
		c-9.615,0-19.01,0.938-28.107,2.708c-12.507-7.319-27.052-11.532-42.589-11.532c-46.65,0-84.467,37.817-84.467,84.467
		c0,15.537,4.214,30.082,11.532,42.588c-1.77,9.097-2.708,18.492-2.708,28.107c0,80.82,65.518,146.338,146.338,146.338
		c9.615,0,19.01-0.938,28.107-2.708c12.507,7.319,27.052,11.532,42.588,11.532c46.65,0,84.467-37.817,84.467-84.467
		C391.275,284.293,387.061,269.749,379.742,257.242z M238.892,329.634c-52,0-78-19.5-86-44s9.5-31.5,15-32s17.167,0.833,20.5,11
		c3.465,10.567,15,31.5,40,34s41.5-9,46.5-21s-4-28.5-42.5-34s-78.5-22.5-78.5-61s44-54,86-54s63.293,23.721,68,33
		c5.833,11.5,3.833,30.661-10,34c-14.5,3.5-22-4.5-32.5-24c-10.858-20.165-49.5-15-62.5-3.5s-9.5,28,44.5,38.5s74,30,74,60.5
		S290.892,329.634,238.892,329.634z"/>
</symbol>

    <symbol viewBox="0 0 512 512" id="gmail">
        <rect width="512" height="512" rx="15%" fill="#dcdcdc"/>
        <path d="M158 391v-142l-82-63V361q0 30 30 30" fill="#4285f4"/>
        <path d="M 154 248l102 77l102-77v-98l-102 77l-102-77" fill="#ea4335"/>
        <path d="M354 391v-142l82-63V361q0 30-30 30" fill="#34a853"/>
        <path d="M76 188l82 63v-98l-30-23c-27-21-52 0-52 26" fill="#c5221f"/>
        <path d="M436 188l-82 63v-98l30-23c27-21 52 0 52 26" fill="#fbbc04"/>
    </symbol>

    <symbol id="facebook" viewBox="0 0 48 48">
        <g stroke="none" stroke-width="1" fill="none" fill-rule="evenodd">
            <g transform="translate(-200.000000, -160.000000)" fill="#4460A0">
                <path d="M225.638355,208 L202.649232,208 C201.185673,208 200,206.813592 200,205.350603 L200,162.649211 C200,161.18585 201.185859,160 202.649232,160 L245.350955,160 C246.813955,160 248,161.18585 248,162.649211 L248,205.350603 C248,206.813778 246.813769,208 245.350955,208 L233.119305,208 L233.119305,189.411755 L239.358521,189.411755 L240.292755,182.167586 L233.119305,182.167586 L233.119305,177.542641 C233.119305,175.445287 233.701712,174.01601 236.70929,174.01601 L240.545311,174.014333 L240.545311,167.535091 C239.881886,167.446808 237.604784,167.24957 234.955552,167.24957 C229.424834,167.24957 225.638355,170.625526 225.638355,176.825209 L225.638355,182.167586 L219.383122,182.167586 L219.383122,189.411755 L225.638355,189.411755 L225.638355,208 L225.638355,208 Z">
                </path>
            </g>
        </g>
    </symbol>

    <symbol viewBox="0 0 512 512" id="telegram">
        <rect width="512" height="512" rx="15%" fill="#37aee2"/>
        <path fill="#c8daea" d="M199 404c-11 0-10-4-13-14l-32-105 245-144"/>
        <path fill="#a9c9dd" d="M199 404c7 0 11-4 16-8l45-43-56-34"/>
        <path fill="#f6fbfe" d="M204 319l135 99c14 9 26 4 30-14l55-258c5-22-9-32-24-25L79 245c-21 8-21 21-4 26l83 26 190-121c9-5 17-3 11 4"/>
    </symbol>

    <symbol viewBox="0 0 512 512" id="whatsapp">
        <rect width="512" height="512" rx="15%" fill="#25d366"/>
        <path fill="#25d366" stroke="#ffffff" stroke-width="26" d="M123 393l14-65a138 138 0 1150 47z"/>
        <path fill="#ffffff" d="M308 273c-3-2-6-3-9 1l-12 16c-3 2-5 3-9 1-15-8-36-17-54-47-1-4 1-6 3-8l9-14c2-2 1-4 0-6l-12-29c-3-8-6-7-9-7h-8c-2 0-6 1-10 5-22 22-13 53 3 73 3 4 23 40 66 59 32 14 39 12 48 10 11-1 22-10 27-19 1-3 6-16 2-18"/>
    </symbol>

    <symbol  viewBox="0 0 24 24" fill="none" id='share' >
        <path d="M8.68439 10.6578L15.3124 7.34378M15.3156 16.6578L8.69379 13.3469M21 6C21 7.65685 19.6569 9 18 9C16.3431 9 15 7.65685 15 6C15 4.34315 16.3431 3 18 3C19.6569 3 21 4.34315 21 6ZM9 12C9 13.6569 7.65685 15 6 15C4.34315 15 3 13.6569 3 12C3 10.3431 4.34315 9 6 9C7.65685 9 9 10.3431 9 12ZM21 18C21 19.6569 19.6569 21 18 21C16.3431 21 15 19.6569 15 18C15 16.3431 16.3431 15 18 15C19.6569 15 21 16.3431 21 18Z" stroke="#000000" stroke-width="1.5"/>
    </symbol>

    <symbol  viewBox="0 0 512 512" id='balance'>
        <path class="st0" d="M511.814,273.543c0.068-0.202,0.135-0.388,0.186-0.59h-0.448L428.664,82.365c0,0,0,0,0.017,0
            c10.713,0.794,19.604,1.536,26.129,2.17l1.672-17.924c-26.965-2.491-91.989-7.269-162.399-8.688
            c-1.342-8.188-5.242-15.584-10.848-21.19c-6.94-6.957-16.623-11.279-27.235-11.279c-10.613,0-20.321,4.322-27.26,11.279
            c-5.598,5.605-9.507,13.001-10.824,21.19C147.498,59.342,82.44,64.12,55.492,66.611l1.672,17.924
            c6.543-0.634,15.416-1.376,26.146-2.17L0.43,272.953H0c0.042,0.202,0.126,0.388,0.177,0.59l-0.161,0.363l0.338,0.152
            c12.546,39.848,49.794,68.73,93.787,68.73c43.976,0,81.208-28.882,93.77-68.73l0.329-0.152l-0.152-0.346l0.009-0.017
            c0.042-0.202,0.118-0.388,0.168-0.59h-0.439L104.298,80.87c0,0,0,0,0.008,0c31.482-2.043,72.352-4.162,115.054-4.973
            c1.874,5.851,5.141,11.111,9.38,15.357c4.904,4.93,11.22,8.526,18.261,10.215v299.817c-7.058,0-13.601,0-18.844,0
            c-7.404,0-12.2,0-12.208,0h-7.666l-1.216,7.556c0,0.094-1.621,9.448-6.256,18.81c-2.296,4.686-5.302,9.338-8.966,12.942
            c-3.69,3.605-7.86,6.188-13.095,7.354l-7.04,1.57v37.028h168.552v-8.982v-28.046l-7.032-1.57
            c-5.302-1.182-9.532-3.833-13.272-7.531c-2.76-2.769-5.175-6.138-7.159-9.658c-2.997-5.277-5.024-10.908-6.256-15.129
            c-0.625-2.11-1.039-3.884-1.292-5.082c-0.135-0.592-0.219-1.056-0.27-1.334l-0.051-0.304l-0.016-0.05l-1.208-7.573h-7.674
            c0,0-13.997,0-31.043,0V101.469c7.042-1.688,13.339-5.284,18.244-10.215c4.247-4.246,7.522-9.506,9.405-15.357
            c42.668,0.811,83.571,2.93,115.045,4.973c0.009,0,0.009,0,0.009,0l-83.53,192.083h-0.447c0.067,0.202,0.135,0.388,0.186,0.59
            l-0.161,0.363l0.346,0.152c12.528,39.848,49.793,68.73,93.77,68.73c43.985,0,81.224-28.882,93.779-68.73l0.33-0.152l-0.152-0.346
            V273.543z M94.141,327.372c-28.83,0-55.382-15.315-70.334-39.004h140.626C149.498,312.057,122.964,327.372,94.141,327.372z
            M171.01,272.953H17.248L94.116,96.159L171.01,272.953z M288.883,419.26c1.165,4.23,3.014,9.819,5.859,15.754
            c2.921,6.044,6.898,12.494,12.503,18.117c4.061,4.086,9.101,7.699,15.036,10.156v5.276h-132.58v-5.276
            c5.943-2.457,10.976-6.071,15.036-10.156c4.204-4.204,7.497-8.898,10.105-13.533c3.909-6.949,6.349-13.77,7.86-18.937
            c0.135-0.48,0.262-0.928,0.388-1.401c1.504,0,3.2,0.017,5.066,0.017c7.421-0.017,17.425-0.017,27.834-0.017
            C269.035,419.26,281.428,419.26,288.883,419.26z M272.936,75.636c-0.735,1.047-1.528,2.009-2.423,2.904
            c-3.723,3.724-8.814,6.011-14.512,6.011c-5.708,0-10.798-2.287-14.546-6.011c-0.87-0.895-1.697-1.857-2.407-2.904
            c-2.262-3.31-3.605-7.295-3.605-11.651c0-2.229,0.338-4.339,1.006-6.332c0.996-3.107,2.743-5.91,5.006-8.206
            c3.748-3.715,8.838-6.011,14.546-6.011c5.699,0,10.789,2.296,14.512,6.011c2.288,2.296,4.036,5.099,5.04,8.206
            c0.667,1.993,0.996,4.103,0.996,6.332C276.548,68.341,275.214,72.327,272.936,75.636z M417.858,327.372
            c-28.823,0-55.366-15.315-70.317-39.004H488.15C473.232,312.057,446.689,327.372,417.858,327.372z M340.964,272.953l76.894-176.793
            l76.886,176.793H340.964z"/>
    </symbol>

    <symbol viewBox="0 0 1024 1024" id='collapse'>
        <path d="m488.832 344.32-339.84 356.672a32 32 0 0 0 0 44.16l.384.384a29.44 29.44 0 0 0 42.688 0l320-335.872 319.872 335.872a29.44 29.44 0 0 0 42.688 0l.384-.384a32 32 0 0 0 0-44.16L535.168 344.32a32 32 0 0 0-46.336 0z"/>
    </symbol>

    <symbol viewBox="0 0 1024 1024" id='expand'>
        <path d="M831.872 340.864 512 652.672 192.128 340.864a30.592 30.592 0 0 0-42.752 0 29.12 29.12 0 0 0 0 41.6L489.664 714.24a32 32 0 0 0 44.672 0l340.288-331.712a29.12 29.12 0 0 0 0-41.728 30.592 30.592 0 0 0-42.752 0z"/>
    </symbol>

    <symbol viewBox="0 0 512 512"  id="check-mark">
        <path d="M17.47 250.9C88.82 328.1 158 397.6 224.5 485.5c72.3-143.8 146.3-288.1 268.4-444.37L460 26.06C356.9 135.4 276.8 238.9 207.2 361.9c-48.4-43.6-126.62-105.3-174.38-137z"/>
    </symbol>

    <symbol  viewBox="0 0 24 24" stroke="none" id="filter" >
        <path fill-rule="evenodd" clip-rule="evenodd" d="M9.90693 3.9999C9.93791 3.99996 9.96894 4.00001 10 4.00001C10.0311 4.00001 10.0621 3.99996 10.0931 3.9999C10.4618 3.99929 10.8242 3.99869 11.147 4.08519C12.0098 4.31636 12.6836 4.99023 12.9148 5.85296C13.0013 6.1758 13.0007 6.53821 13.0001 6.90693C13.0001 6.93792 13 6.96895 13 7.00001H21C21.5523 7.00001 22 7.44772 22 8.00001C22 8.55229 21.5523 9.00001 21 9.00001H13C13 9.03107 13.0001 9.0621 13.0001 9.09309C13.0007 9.46181 13.0013 9.82422 12.9148 10.1471C12.6836 11.0098 12.0098 11.6837 11.147 11.9148C10.8242 12.0013 10.4618 12.0007 10.0931 12.0001C10.0621 12.0001 10.0311 12 10 12C9.96894 12 9.93791 12.0001 9.90692 12.0001C9.5382 12.0007 9.17579 12.0013 8.85295 11.9148C7.99022 11.6837 7.31635 11.0098 7.08519 10.1471C6.99868 9.82421 6.99928 9.46181 6.9999 9.09308C6.99995 9.0621 7 9.03106 7 9.00001H5C4.44772 9.00001 4 8.55229 4 8.00001C4 7.44772 4.44772 7.00001 5 7.00001H7C7 6.96895 6.99995 6.93792 6.9999 6.90693C6.99928 6.53821 6.99868 6.1758 7.08519 5.85296C7.31635 4.99023 7.99022 4.31636 8.85295 4.08519C9.17579 3.99869 9.5382 3.99929 9.90693 3.9999ZM9.49861 6.00536C9.39195 6.01022 9.36685 6.01805 9.37059 6.01704C9.19804 6.06328 9.06327 6.19805 9.01704 6.3706C9.0162 6.37411 9.00963 6.40483 9.00535 6.49861C9.00024 6.61064 9 6.75845 9 7.00001V9.00001C9 9.24156 9.00024 9.38937 9.00535 9.5014C9.01021 9.60806 9.01804 9.63315 9.01704 9.62942C9.06327 9.80196 9.19804 9.93674 9.37059 9.98297C9.36685 9.98197 9.39195 9.98979 9.49861 9.99466C9.61063 9.99977 9.75844 10 10 10C10.2416 10 10.3894 9.99977 10.5014 9.99466C10.608 9.98979 10.6331 9.98197 10.6294 9.98297C10.802 9.93674 10.9367 9.80196 10.983 9.62942C10.982 9.63315 10.9898 9.60806 10.9946 9.5014C10.9998 9.38937 11 9.24156 11 9.00001V7.00001C11 6.75845 10.9998 6.61064 10.9946 6.49861C10.9898 6.39196 10.982 6.36686 10.983 6.3706M9.49861 6.00536C9.61063 6.00025 9.75844 6.00001 10 6.00001L9.49861 6.00536ZM10 6.00001C10.2416 6.00001 10.3894 6.00025 10.5014 6.00536L10 6.00001ZM10.5014 6.00536C10.5952 6.00963 10.6259 6.0162 10.6294 6.01704L10.5014 6.00536ZM10.6298 6.01713C10.6298 6.01713 10.6296 6.0171 10.6294 6.01704L10.6298 6.01713ZM15.9069 11.9999C15.9379 12 15.9689 12 16 12C16.0311 12 16.0621 12 16.0931 11.9999C16.4618 11.9993 16.8242 11.9987 17.147 12.0852C18.0098 12.3164 18.6836 12.9902 18.9148 13.853C19.0013 14.1758 19.0007 14.5382 19.0001 14.9069C19.0001 14.9379 19 14.9689 19 15H21C21.5523 15 22 15.4477 22 16C22 16.5523 21.5523 17 21 17H19C19 17.0311 19.0001 17.0621 19.0001 17.0931C19.0007 17.4618 19.0013 17.8242 18.9148 18.1471C18.6836 19.0098 18.0098 19.6837 17.147 19.9148C16.8242 20.0013 16.4618 20.0007 16.0931 20.0001C16.0621 20.0001 16.0311 20 16 20C15.9689 20 15.9379 20.0001 15.9069 20.0001C15.5382 20.0007 15.1758 20.0013 14.853 19.9148C13.9902 19.6837 13.3164 19.0098 13.0852 18.1471C12.9987 17.8242 12.9993 17.4618 12.9999 17.0931C12.9999 17.0621 13 17.0311 13 17H5C4.44772 17 4 16.5523 4 16C4 15.4477 4.44772 15 5 15H13C13 14.969 12.9999 14.9379 12.9999 14.9069C12.9993 14.5382 12.9987 14.1758 13.0852 13.853C13.3164 12.9902 13.9902 12.3164 14.853 12.0852C15.1758 11.9987 15.5382 11.9993 15.9069 11.9999ZM15.4986 14.0054C15.392 14.0102 15.3669 14.018 15.3706 14.017C15.198 14.0633 15.0633 14.1981 15.017 14.3706C15.018 14.3669 15.0102 14.392 15.0054 14.4986C15.0002 14.6106 15 14.7585 15 15V17C15 17.2416 15.0002 17.3894 15.0054 17.5014C15.0102 17.6081 15.018 17.6332 15.017 17.6294C15.0633 17.802 15.198 17.9367 15.3706 17.983C15.3669 17.982 15.392 17.9898 15.4986 17.9947C15.6106 17.9998 15.7584 18 16 18C16.2416 18 16.3894 17.9998 16.5014 17.9947C16.608 17.9898 16.6331 17.982 16.6294 17.983C16.802 17.9367 16.9367 17.802 16.983 17.6294C16.982 17.6332 16.9898 17.6081 16.9946 17.5014C16.9998 17.3894 17 17.2416 17 17V15C17 14.7585 16.9998 14.6106 16.9946 14.4986C16.9898 14.392 16.982 14.3669 16.983 14.3706C16.9367 14.1981 16.802 14.0633 16.6294 14.017C16.6331 14.018 16.608 14.0102 16.5014 14.0054C16.3894 14.0002 16.2416 14 16 14C15.7584 14 15.6106 14.0002 15.4986 14.0054Z"/>
    </symbol>

    <symbol viewBox="0 0 512 512" id="sale" >
        <path class="st0" d="M480.172,261.756c-0.708-1.866-1.058-3.811-1.058-5.756c0-1.958,0.35-3.904,1.058-5.756l18.696-49.088
            c1.614-4.234,2.395-8.654,2.395-12.993c0.007-12.041-5.981-23.658-16.532-30.552L440.742,128.9
            c-3.315-2.17-5.729-5.491-6.762-9.328l-13.727-50.702c-4.334-15.97-18.808-26.952-35.216-26.966c-0.615,0-1.23,0.027-1.852,0.053
            l0.926-0.053l-53.236,2.673l-0.92,0.013c-3.698,0-7.277-1.257-10.162-3.572L278.89,8.071c-6.662-5.372-14.8-8.085-22.883-8.071
            c-8.092-0.014-16.228,2.699-22.904,8.071l0.007,0.014l-40.905,32.932c-2.878,2.316-6.47,3.572-10.162,3.572l-0.596-0.013
            l-52.654-2.62h0.1c-0.721-0.04-1.363-0.04-1.932-0.04c-16.406,0-30.875,10.982-35.208,26.952l-13.728,50.702
            c-1.032,3.837-3.446,7.158-6.761,9.328l-43.988,28.712c-10.552,6.894-16.546,18.524-16.539,30.564c0,4.34,0.78,8.746,2.388,12.98
            l18.709,49.088c0.702,1.852,1.059,3.797,1.059,5.756c0,1.945-0.351,3.89-1.059,5.742l-18.702,49.102
            c-1.614,4.22-2.395,8.626-2.395,12.966c-0.007,12.041,5.98,23.672,16.539,30.578L71.264,383.1c3.314,2.17,5.729,5.478,6.761,9.315
            l13.728,50.702c4.333,15.97,18.808,26.952,35.208,26.952c0.569,0,1.171,0,1.82-0.04l52.476-2.62h0.099l0.715-0.026
            c3.672,0.013,7.251,1.27,10.135,3.586l40.905,32.959c6.669,5.372,14.799,8.071,22.897,8.071c8.084,0,16.221-2.699,22.89-8.071
            l40.905-32.959c2.884-2.329,6.457-3.586,10.134-3.586l0.788,0.026l52.23,2.607l0.351,0.013c0.543,0.026,1.118,0.04,1.733,0.04
            c16.4,0,30.882-10.969,35.216-26.952l13.727-50.702c1.032-3.837,3.441-7.145,6.755-9.315l43.995-28.712
            c10.552-6.906,16.539-18.524,16.532-30.564c0-4.34-0.781-8.759-2.395-12.993L480.172,261.756z M473.609,337.373l-43.981,28.712
            c-7.496,4.895-12.927,12.371-15.269,21.024l-13.728,50.689c-1.906,7.092-8.343,11.948-15.594,11.948l-0.886-0.014l-51.463-2.58
            l-0.893-0.04c-0.595-0.026-1.211-0.053-1.86-0.053c-8.309,0-16.393,2.845-22.89,8.084l-40.904,32.96
            c-2.971,2.381-6.53,3.572-10.135,3.572c-3.612,0-7.172-1.191-10.142-3.572l-40.905-32.96c-6.497-5.239-14.581-8.084-22.89-8.084
            c-0.543,0.013-1.164,0.013-1.832,0.053l-52.463,2.62l-0.814,0.014c-7.244,0.013-13.681-4.869-15.587-11.934l-13.727-50.716
            c-2.342-8.64-7.774-16.116-15.276-21.011L38.39,337.373c-4.677-3.057-7.323-8.217-7.33-13.563c0-1.918,0.344-3.85,1.058-5.729
            l18.703-49.088c1.594-4.181,2.395-8.587,2.395-12.993s-0.801-8.812-2.395-13.007l-18.703-49.075
            c-0.714-1.892-1.058-3.824-1.058-5.743c0.007-5.345,2.646-10.492,7.323-13.549l43.995-28.712
            c7.495-4.909,12.927-12.385,15.269-21.025l13.727-50.716c1.906-7.065,8.35-11.948,15.587-11.934l0.715,0.014l0.225,0.013
            l51.774,2.58l0.608,0.026l1.76,0.039c8.316,0,16.4-2.831,22.91-8.058l40.905-32.96l-6.371-7.912l6.378,7.912
            c2.97-2.395,6.53-3.572,10.142-3.586c3.605,0.013,7.164,1.191,10.135,3.586l40.911,32.946c6.51,5.253,14.601,8.071,22.904,8.071
            c0.615,0,1.178-0.013,1.687-0.026l52.919-2.646l0.476-0.014c7.245,0,13.688,4.883,15.594,11.948l13.728,50.716
            c2.342,8.64,7.773,16.116,15.269,21.012l43.987,28.725c4.678,3.056,7.324,8.204,7.324,13.536c0,1.918-0.337,3.85-1.065,5.769
            l-18.689,49.075c-1.602,4.181-2.395,8.588-2.395,12.994s0.8,8.812,2.395,12.993l18.695,49.075c0.722,1.905,1.059,3.837,1.059,5.756
            C480.939,329.156,478.293,334.316,473.609,337.373z"/>
        <path class="st0" d="M307.84,164.426c-2.011-3.083-5.412-4.962-9.076-4.962h-6.676c-4.194,0-7.998,2.448-9.771,6.271
            l-78.866,171.558c-1.482,3.294-1.243,7.198,0.728,10.28c1.998,3.083,5.424,4.962,9.096,4.962h6.642
            c4.208,0,8.032-2.435,9.778-6.259l78.878-171.557C310.083,171.426,309.825,167.522,307.84,164.426z"/>
        <path class="st0" d="M226.249,241.036c1.899-5.438,2.474-1.654,2.474-18.789c0-17.161-0.575-13.364-2.474-18.841
            c-4.611-13.575-17.69-22.335-35.136-22.335c-17.433,0-30.485,8.76-35.123,22.335c-1.912,5.478-2.461,1.68-2.461,18.841
            c0,17.134,0.549,13.35,2.461,18.789c4.638,13.628,17.69,22.348,35.123,22.348C208.559,263.383,221.638,254.664,226.249,241.036z
            M200.653,235.597c-1.376,4.102-4.896,6.259-9.54,6.259c-4.625,0-8.157-2.157-9.527-6.259c-0.82-2.183-1.079,3.242-1.079-13.35
            c0-16.631,0.258-11.207,1.079-13.364c1.37-4.102,4.902-6.284,9.527-6.284c4.644,0,8.163,2.183,9.54,6.284
            c0.826,2.156,1.078-3.268,1.078,13.364C201.731,238.839,201.48,233.414,200.653,235.597z"/>
        <path class="st0" d="M320.886,248.63c-17.452,0-30.511,8.72-35.149,22.308c-1.878,5.478-2.441,1.654-2.441,18.815
            c0,17.161,0.562,13.377,2.441,18.788c4.638,13.642,17.697,22.388,35.149,22.388c17.426,0,30.525-8.746,35.143-22.388
            c1.906-5.411,2.448-1.627,2.448-18.788c0-17.161-0.542-13.337-2.448-18.815C351.411,257.35,338.312,248.63,320.886,248.63z
            M330.4,303.13c-1.343,4.075-4.876,6.258-9.514,6.258c-4.638,0-8.176-2.183-9.546-6.258c-0.814-2.17-1.065,3.228-1.065-13.377
            c0-16.632,0.251-11.18,1.065-13.337c1.37-4.128,4.909-6.298,9.546-6.298c4.638,0,8.171,2.17,9.514,6.298
            c0.854,2.157,1.118-3.294,1.118,13.337C331.517,306.359,331.253,300.96,330.4,303.13z"/>
    </symbol>

    <symbol  fill="none" viewBox="0 0 22 22" id="menu">
		<path stroke="currentColor" stroke-linecap="round" stroke-width="1.5" d="M12.8 13.25H20m-7.2 3.15H20m-7.2 3.15H20M3 20h5.2a1 1 0 0 0 1-1v-5.2a1 1 0 0 0-1-1H3a1 1 0 0 0-1 1V19a1 1 0 0 0 1 1zM13.8 9.65H19a1 1 0 0 0 1-1V3a1 1 0 0 0-1-1h-5.2a1 1 0 0 0-1 1v5.65a1 1 0 0 0 1 1zM3 9.65h5.2a1 1 0 0 0 1-1V3a1 1 0 0 0-1-1H3a1 1 0 0 0-1 1v5.65a1 1 0 0 0 1 1z"></path>
	</symbol>

    <symbol viewBox="0 0 24 24" fill="none" id="burger">
        <path d="M4 18H10" stroke-width="2" stroke-linecap="round"/>
        <path d="M4 12L16 12" stroke-width="2" stroke-linecap="round"/>
        <path d="M4 6L20 6" stroke-width="2" stroke-linecap="round"/>
    </symbol> 

    <symbol viewBox="0 -3.71 75.17 75.17" id="favorites">
        <path d="M117.606,280.375s22.263-15.459,31.959-30.318c9.6-14.708.354-31.054-10.533-33.8-14.457-3.65-21.426,10.478-21.426,10.478s-6.968-14.128-21.425-10.478c-10.888,2.748-20.132,19.094-10.534,33.8C95.343,264.916,117.606,280.375,117.606,280.375Z" transform="translate(-80.021 -214.131)" fill="none" stroke-linejoin="round" stroke-width="4"/>
    </symbol>

    <symbol viewBox="0 -3.71 75.17 75.17" id="favorites-filled">
        <path d="M117.606,280.375s22.263-15.459,31.959-30.318c9.6-14.708.354-31.054-10.533-33.8-14.457-3.65-21.426,10.478-21.426,10.478s-6.968-14.128-21.425-10.478c-10.888,2.748-20.132,19.094-10.534,33.8C95.343,264.916,117.606,280.375,117.606,280.375Z" transform="translate(-80.021 -214.131)" fill="#f05a00"  stroke-linejoin="round" stroke-width="3"/>
    </symbol>

    <symbol stroke="none" viewBox="0 0 24 24" id="user">
        <path fill-rule="evenodd" clip-rule="evenodd" d="M12.0001 1.25C9.37678 1.25 7.25013 3.37665 7.25013 6C7.25013 8.62335 9.37678 10.75 12.0001 10.75C14.6235 10.75 16.7501 8.62335 16.7501 6C16.7501 3.37665 14.6235 1.25 12.0001 1.25ZM8.75013 6C8.75013 4.20507 10.2052 2.75 12.0001 2.75C13.7951 2.75 15.2501 4.20507 15.2501 6C15.2501 7.79493 13.7951 9.25 12.0001 9.25C10.2052 9.25 8.75013 7.79493 8.75013 6Z"/>
        <path fill-rule="evenodd" clip-rule="evenodd" d="M12.0001 12.25C9.68658 12.25 7.55506 12.7759 5.97558 13.6643C4.41962 14.5396 3.25013 15.8661 3.25013 17.5L3.25007 17.602C3.24894 18.7638 3.24752 20.222 4.52655 21.2635C5.15602 21.7761 6.03661 22.1406 7.22634 22.3815C8.4194 22.6229 9.97436 22.75 12.0001 22.75C14.0259 22.75 15.5809 22.6229 16.7739 22.3815C17.9637 22.1406 18.8443 21.7761 19.4737 21.2635C20.7527 20.222 20.7513 18.7638 20.7502 17.602L20.7501 17.5C20.7501 15.8661 19.5807 14.5396 18.0247 13.6643C16.4452 12.7759 14.3137 12.25 12.0001 12.25ZM4.75013 17.5C4.75013 16.6487 5.37151 15.7251 6.71098 14.9717C8.02693 14.2315 9.89541 13.75 12.0001 13.75C14.1049 13.75 15.9733 14.2315 17.2893 14.9717C18.6288 15.7251 19.2501 16.6487 19.2501 17.5C19.2501 18.8078 19.2098 19.544 18.5265 20.1004C18.156 20.4022 17.5366 20.6967 16.4763 20.9113C15.4194 21.1252 13.9744 21.25 12.0001 21.25C10.0259 21.25 8.58087 21.1252 7.52393 20.9113C6.46366 20.6967 5.84425 20.4022 5.47372 20.1004C4.79045 19.544 4.75013 18.8078 4.75013 17.5Z"/>
    </symbol>

    <svg viewBox="0 0 24 24" fill ="none" id="basket">
        <path d="M2.08368 2.7512C2.22106 2.36044 2.64921 2.15503 3.03998 2.29242L3.34138 2.39838C3.95791 2.61511 4.48154 2.79919 4.89363 3.00139C5.33426 3.21759 5.71211 3.48393 5.99629 3.89979C6.27827 4.31243 6.39468 4.76515 6.44841 5.26153C6.47247 5.48373 6.48515 5.72967 6.49184 6H17.1301C18.815 6 20.3318 6 20.7757 6.57708C21.2197 7.15417 21.0461 8.02369 20.699 9.76275L20.1992 12.1875C19.8841 13.7164 19.7266 14.4808 19.1748 14.9304C18.6231 15.38 17.8426 15.38 16.2816 15.38H10.9787C8.18979 15.38 6.79534 15.38 5.92894 14.4662C5.06254 13.5523 4.9993 12.5816 4.9993 9.64L4.9993 7.03832C4.9993 6.29837 4.99828 5.80316 4.95712 5.42295C4.91779 5.0596 4.84809 4.87818 4.75783 4.74609C4.66977 4.61723 4.5361 4.4968 4.23288 4.34802C3.91003 4.18961 3.47128 4.03406 2.80367 3.79934L2.54246 3.7075C2.1517 3.57012 1.94629 3.14197 2.08368 2.7512Z"/>
        <path d="M7.5 18C8.32843 18 9 18.6716 9 19.5C9 20.3284 8.32843 21 7.5 21C6.67157 21 6 20.3284 6 19.5C6 18.6716 6.67157 18 7.5 18Z"/>
        <path d="M16.5 18.0001C17.3284 18.0001 18 18.6716 18 19.5001C18 20.3285 17.3284 21.0001 16.5 21.0001C15.6716 21.0001 15 20.3285 15 19.5001C15 18.6716 15.6716 18.0001 16.5 18.0001Z" />
    </svg>
    
    <svg viewBox="0 0 24 24"  id="full-basket">
        <path d="M2.08368 2.7512C2.22106 2.36044 2.64921 2.15503 3.03998 2.29242L3.34138 2.39838C3.95791 2.61511 4.48154 2.79919 4.89363 3.00139C5.33426 3.21759 5.71211 3.48393 5.99629 3.89979C6.27827 4.31243 6.39468 4.76515 6.44841 5.26153C6.47247 5.48373 6.48515 5.72967 6.49184 6H17.1301C18.815 6 20.3318 6 20.7757 6.57708C21.2197 7.15417 21.0461 8.02369 20.699 9.76275L20.1992 12.1875C19.8841 13.7164 19.7266 14.4808 19.1748 14.9304C18.6231 15.38 17.8426 15.38 16.2816 15.38H10.9787C8.18979 15.38 6.79534 15.38 5.92894 14.4662C5.06254 13.5523 4.9993 12.5816 4.9993 9.64L4.9993 7.03832C4.9993 6.29837 4.99828 5.80316 4.95712 5.42295C4.91779 5.0596 4.84809 4.87818 4.75783 4.74609C4.66977 4.61723 4.5361 4.4968 4.23288 4.34802C3.91003 4.18961 3.47128 4.03406 2.80367 3.79934L2.54246 3.7075C2.1517 3.57012 1.94629 3.14197 2.08368 2.7512Z"/>
        <path  d="M7.5 18C8.32843 18 9 18.6716 9 19.5C9 20.3284 8.32843 21 7.5 21C6.67157 21 6 20.3284 6 19.5C6 18.6716 6.67157 18 7.5 18Z"/>
        <path  d="M16.5 18.0001C17.3284 18.0001 18 18.6716 18 19.5001C18 20.3285 17.3284 21.0001 16.5 21.0001C15.6716 21.0001 15 20.3285 15 19.5001C15 18.6716 15.6716 18.0001 16.5 18.0001Z" />
        <path fill= "#ffffff" stroke= "#ffffff" d="M15.5421 9.51724C15.8278 9.2173 15.8162 8.74256 15.5163 8.4569C15.2163 8.17123 14.7416 8.18281 14.4559 8.48276L12.1419 10.9125L11.5421 10.2828C11.2565 9.98281 10.7817 9.97123 10.4818 10.2569C10.1818 10.5426 10.1703 11.0173 10.4559 11.3172L11.5988 12.5172C11.7403 12.6659 11.9366 12.75 12.1419 12.75C12.3471 12.75 12.5434 12.6659 12.685 12.5172L15.5421 9.51724Z" />
    </svg>

    <symbol viewBox="0 0 32 32" id="back">
        <path d="M14.389 7.956v4.374l1.056 0.010c7.335 0.071 11.466 3.333 12.543 9.944-4.029-4.661-8.675-4.663-12.532-4.664h-1.067v4.337l-9.884-7.001 9.884-7zM15.456 5.893l-12.795 9.063 12.795 9.063v-5.332c5.121 0.002 9.869 0.26 13.884 7.42 0-4.547-0.751-14.706-13.884-14.833v-5.381z">
        </path>
    </symbol>

    <symbol viewBox="0 0 24 24" fill="none" id="arrowTop">
        <path d="M12 6V18M12 6L7 11M12 6L17 11" stroke-width="2" stroke-linecap="round" stroke-linejoin="round"/>
    </symbol>

    <svg viewBox="0 0 24 24" stroke="none" id="arrow-prev">
        <path d="M16.1795 3.26875C15.7889 2.87823 15.1558 2.87823 14.7652 3.26875L8.12078 9.91322C6.94952 11.0845 6.94916 12.9833 8.11996 14.155L14.6903 20.7304C15.0808 21.121 15.714 21.121 16.1045 20.7304C16.495 20.3399 16.495 19.7067 16.1045 19.3162L9.53246 12.7442C9.14194 12.3536 9.14194 11.7205 9.53246 11.33L16.1795 4.68297C16.57 4.29244 16.57 3.65928 16.1795 3.26875Z"/>
    </svg>

    <symbol viewBox="0 0 24 24" stroke="none" id="arrow-next">
        <path d="M7.82054 20.7313C8.21107 21.1218 8.84423 21.1218 9.23476 20.7313L15.8792 14.0868C17.0505 12.9155 17.0508 11.0167 15.88 9.84497L9.3097 3.26958C8.91918 2.87905 8.28601 2.87905 7.89549 3.26958C7.50497 3.6601 7.50497 4.29327 7.89549 4.68379L14.4675 11.2558C14.8581 11.6464 14.8581 12.2795 14.4675 12.67L7.82054 19.317C7.43002 19.7076 7.43002 20.3407 7.82054 20.7313Z" />
    </symbol>    

     <symbol viewBox="0 0 48 48" id="phone">
        <path class="c" d="m19.308,12.467c-.4234-1.4115-.7215-2.8773-.8813-4.3843-.1571-1.4812-1.449-2.5826-2.9385-2.5826h-6.9092c-1.7767,0-3.1454,1.5345-2.989,3.3043,1.5754,17.8285,15.7771,32.0302,33.6056,33.6056,1.7698.1564,3.3043-1.2073,3.3043-2.9839v-6.1595c0-2.2488-1.1015-3.5362-2.5826-3.6932-1.507-.1598-2.9728-.4579-4.3843-.8813-1.7266-.5179-3.5957-.0304-4.8704,1.2442l-2.9566,2.9566c-5.326-2.8825-9.7164-7.2729-12.5989-12.5989l2.9566-2.9567c1.2746-1.2746,1.7621-3.1438,1.2442-4.8703Z"/>
     </symbol>

    <symbol viewBox="0 0 32 32" style="fill-rule:evenodd;clip-rule:evenodd;stroke-linejoin:round;stroke-miterlimit:2;"  id="email">
        <path d="M31,10c0,-1.326 -0.527,-2.598 -1.464,-3.536c-0.938,-0.937 -2.21,-1.464 -3.536,-1.464c-5.322,0 -14.678,0 -20,0c-1.326,-0 -2.598,0.527 -3.536,1.464c-0.937,0.938 -1.464,2.21 -1.464,3.536c0,3.486 0,8.514 0,12c-0,1.326 0.527,2.598 1.464,3.536c0.938,0.937 2.21,1.464 3.536,1.464c5.322,-0 14.678,-0 20,-0c1.326,0 2.598,-0.527 3.536,-1.464c0.937,-0.938 1.464,-2.21 1.464,-3.536c0,-3.486 0,-8.514 0,-12Zm-26.556,-0.221c-0,-0 5.145,4.237 8.372,6.894c1.849,1.523 4.519,1.52 6.365,-0.007c3.237,-2.677 8.413,-6.959 8.413,-6.959c0.425,-0.352 0.485,-0.983 0.133,-1.408c-0.351,-0.425 -0.982,-0.485 -1.408,-0.133c0,-0 -5.176,4.281 -8.412,6.959c-1.108,0.916 -2.71,0.918 -3.82,0.004c0,0 -8.372,-6.894 -8.372,-6.894c-0.426,-0.351 -1.056,-0.29 -1.407,0.136c-0.351,0.426 -0.29,1.057 0.136,1.408Z"/>
    </symbol>

    <symbol  viewBox="0 0 24 24"  id = "minus">
        <path fill-rule="evenodd" clip-rule="evenodd" d="M4 12C4 11.4477 4.44772 11 5 11H19C19.5523 11 20 11.4477 20 12C20 12.5523 19.5523 13 19 13H5C4.44772 13 4 12.5523 4 12Z" />
    </symbol>

    <symbol  viewBox="0 0 24 24" id = "plus">
        <path fill-rule="evenodd" clip-rule="evenodd" d="M13 4C13 3.44772 12.5523 3 12 3C11.4477 3 11 3.44772 11 4V11H4C3.44772 11 3 11.4477 3 12C3 12.5523 3.44772 13 4 13H11V20C11 20.5523 11.4477 21 12 21C12.5523 21 13 20.5523 13 20V13H20C20.5523 13 21 12.5523 21 12C21 11.4477 20.5523 11 20 11H13V4Z" />
    </symbol>

    <symbol viewBox="0 0 24 24" stroke="none" id ="close">
        <path d="M20.7457 3.32851C20.3552 2.93798 19.722 2.93798 19.3315 3.32851L12.0371 10.6229L4.74275 3.32851C4.35223 2.93798 3.71906 2.93798 3.32854 3.32851C2.93801 3.71903 2.93801 4.3522 3.32854 4.74272L10.6229 12.0371L3.32856 19.3314C2.93803 19.722 2.93803 20.3551 3.32856 20.7457C3.71908 21.1362 4.35225 21.1362 4.74277 20.7457L12.0371 13.4513L19.3315 20.7457C19.722 21.1362 20.3552 21.1362 20.7457 20.7457C21.1362 20.3551 21.1362 19.722 20.7457 19.3315L13.4513 12.0371L20.7457 4.74272C21.1362 4.3522 21.1362 3.71903 20.7457 3.32851Z" />
    </symbol>

    <symbol  viewBox="0 0 24 24" fill="none" id ="home">
        <path d="M22 22L2 22"  stroke-width="1.5" stroke-linecap="round"/>
        <path d="M2 11L10.1259 4.49931C11.2216 3.62279 12.7784 3.62279 13.8741 4.49931L22 11" stroke-width="1.5" stroke-linecap="round"/>
        <path d="M15.5 5.5V3.5C15.5 3.22386 15.7239 3 16 3H18.5C18.7761 3 19 3.22386 19 3.5V8.5" stroke-width="1.5" stroke-linecap="round"/>
        <path d="M4 22V9.5"  stroke-width="1.5" stroke-linecap="round"/>
        <path d="M20 22V9.5" stroke-width="1.5" stroke-linecap="round"/>
        <path d="M15 22V17C15 15.5858 15 14.8787 14.5607 14.4393C14.1213 14 13.4142 14 12 14C10.5858 14 9.87868 14 9.43934 14.4393C9 14.8787 9 15.5858 9 17V22" stroke-width="1.5"/>
        <path d="M14 9.5C14 10.6046 13.1046 11.5 12 11.5C10.8954 11.5 10 10.6046 10 9.5C10 8.39543 10.8954 7.5 12 7.5C13.1046 7.5 14 8.39543 14 9.5Z" stroke-width="1.5"/>
    </symbol>

    <symbol fill="#000000" viewBox="0 0 256.00098 256.00098" id="search" >
        <path d="M226.82129,221.17236,180.955,175.306a88.10138,88.10138,0,1,0-5.657,5.65649L221.165,226.82959a3.99992,3.99992,0,0,0,5.65625-5.65723ZM35.999,116a80,80,0,1,1,80,80A80.09041,80.09041,0,0,1,35.999,116Z"/>
    </symbol>

    <symbol viewBox="0 0 433.012 433.012" id="empty-favorites">
			<path d="M249.062,279.146l-29.115-20.59l0.457-35.655c0.049-3.807-2.068-7.31-5.458-9.038c-3.393-1.729-7.473-1.381-10.521,0.896
				l-28.578,21.327l-33.77-11.452c-3.605-1.222-7.59-0.293-10.283,2.399c-2.691,2.692-3.621,6.678-2.398,10.283l11.451,33.77
				l-21.326,28.578c-2.277,3.051-2.623,7.129-0.896,10.521c1.729,3.392,5.27,5.52,9.039,5.459l35.654-0.455l20.59,29.112
				c1.893,2.676,4.949,4.228,8.162,4.228c0.52,0,1.043-0.041,1.566-0.124c3.76-0.596,6.855-3.274,7.984-6.909l10.586-34.051
				l34.051-10.584c3.635-1.13,6.312-4.227,6.907-7.985C253.76,285.115,252.17,281.343,249.062,279.146z M201.248,289.906
				c-3.143,0.977-5.604,3.438-6.58,6.581l-6.133,19.723l-11.926-16.863c-1.875-2.651-4.92-4.226-8.164-4.226
				c-0.041,0-0.084,0-0.127,0.001l-20.652,0.264l12.354-16.553c1.967-2.638,2.512-6.075,1.455-9.192l-6.633-19.56l19.559,6.633
				c3.119,1.058,6.557,0.514,9.193-1.456l16.553-12.353l-0.264,20.651c-0.043,3.291,1.537,6.393,4.225,8.292l16.863,11.926
				L201.248,289.906z"/>
			<path d="M376.885,5.057c-33.625-14.943-74.965,4.36-92.146,43.028c-2.973,6.691-5.01,13.53-6.207,20.343l-30.141,1.482
				c-2.479,0.122-4.824,1.162-6.58,2.917L21.734,292.905c-1.875,1.875-2.928,4.419-2.928,7.071c0,2.651,1.053,5.195,2.928,7.07
				l123.037,123.036c1.953,1.953,4.512,2.93,7.072,2.93c2.559,0,5.117-0.978,7.07-2.93l220.078-220.078
				c1.754-1.755,2.795-4.101,2.916-6.58l3.531-71.801c8.935-7.957,16.24-18.014,21.275-29.344
				C423.895,63.614,410.514,20,376.885,5.057z M151.844,408.87L42.95,299.976l210.277-210.28l24.225-1.191
				c1.24,17.583,8.244,33.737,19.984,45.171c-1.422,5.623,0.047,11.827,4.445,16.226c6.647,6.648,17.43,6.648,24.078,0
				c6.647-6.648,6.647-17.429,0-24.077c-4.379-4.38-10.552-5.855-16.154-4.463c-8.734-8.355-13.941-20.415-14.93-33.713
				l72.879-3.584l-5.633,114.527L151.844,408.87z M390.748,95.187c-1.152,2.593-2.453,5.1-3.888,7.506l1.41-28.668
				c0.139-2.819-0.92-5.566-2.916-7.563c-1.996-1.995-4.742-3.055-7.562-2.917l-81.259,3.997c0.984-4.141,2.359-8.284,4.173-12.363
				c13.268-29.864,44.26-45.187,69.084-34.155C394.615,32.055,404.018,65.324,390.748,95.187z"/>
    </symbol>


    <symbol  viewBox="0 0 185.42 99.73" id ="empty-basket">
        <path d="m36.06 76.41l-12.65 0c-1.4 0-3 0-2.86-2 0.13-1.73 1.73-1.42 2.89-1.43q13.06 0 26.12 0c1.18 0 2.74-0.24 2.85 1.49 0.13 2-1.51 1.9-2.88 1.9 -4.53 0.05-8.98 0.05-13.47 0.04z">
        </path>
        <path  d="m53.91 87.12c-2 0-4.08 0-6.11 0 -1 0-1.91-0.44-1.82-1.68a1.52 1.52 0 0 1 1.7-1.44q6.52-0.05 13 0c1 0 2 0.45 1.83 1.67s-1.1 1.42-2.12 1.42l-6.48 0 0 0.03z">
        </path>
        <path  d="m33.74 99.33c-2 0-4.06 0-6.09 0 -0.88 0-1.66-0.36-1.76-1.3s0.7-1.46 1.55-1.47q6.29-0.06 12.58 0c0.78 0 1.71 0.22 1.76 1.27 0.05 1.32-1 1.46-2 1.48 -1.98 0.05-4.01 0.02-6.04 0.02z">
        </path>
        <path  d="m39.2 87.15c-1.19-0.06-2.71 0.08-2.66-1.6s1.56-1.55 2.75-1.55 2.7-0.11 2.65 1.6 -1.56 1.49-2.74 1.55z">
        </path>
        <path  d="m2.54 73.56c1.36 0.23 3.11-0.23 3 1.59s-1.83 1.22-3 1.24 -2.49 0.32-2.54-1.25c-0.06-1.97 1.76-1.14 2.54-1.58z">
        </path>
        <path d="m16.8 96.48c1 0.11 2.35-0.09 2.32 1.47 0 1.18-1.06 1.39-2.05 1.38s-2.32 0-2.34-1.48c-0.01-1.3 1.12-1.26 2.07-1.37z">
        </path>
        <path  d="m12.92 76.44c-1.23-0.11-2-0.68-2-1.73 0-1.33 0.93-1.86 2.13-1.78a1.62 1.62 0 0 1 1.63 1.87 1.71 1.71 0 0 1-1.76 1.64z">
        </path>
        <path  d="m149.36 76.8l12.64 0c1.4 0 3 0 2.86-2 -0.13-1.73-1.73-1.42-2.89-1.43q-13.06 0-26.12 0c-1.18 0-2.74-0.24-2.85 1.49 -0.13 2 1.51 1.9 2.88 1.9 4.5 0.05 8.99 0.04 13.48 0.04z">
        </path>
        <path d="m131.51 87.5c2 0 4.08 0 6.11 0 1 0 1.91-0.44 1.82-1.68a1.52 1.52 0 0 0-1.71-1.38q-6.52-0.05-13 0c-1 0-2 0.45-1.83 1.67s1.1 1.42 2.12 1.42l6.52 0 -0.03-0.03z">
        </path>
        <path d="m151.68 99.71c2 0 4.06 0 6.09 0 0.88 0 1.66-0.36 1.76-1.3s-0.7-1.46-1.55-1.47q-6.29-0.06-12.58 0c-0.78 0-1.71 0.22-1.76 1.27 -0.05 1.32 1 1.46 2 1.48 1.98 0.06 4.01 0.03 6.04 0.02z">
        </path>
        <path d="m146.22 87.54c1.19-0.06 2.71 0.08 2.66-1.6s-1.56-1.54-2.75-1.53 -2.7-0.11-2.65 1.6 1.52 1.47 2.74 1.53z">
        </path>
        <path d="m182.88 74c-1.36 0.23-3.11-0.23-3 1.59s1.83 1.22 3 1.24 2.49 0.32 2.54-1.26c0.06-2.01-1.76-1.18-2.54-1.57z">
        </path>
        <path d="m168.62 96.87c-1 0.11-2.35-0.09-2.32 1.47 0 1.18 1.06 1.39 2.05 1.38s2.32 0 2.34-1.48c0.01-1.3-1.12-1.24-2.07-1.37z">
        </path>
        <path d="m172.5 76.83c1.23-0.11 2-0.68 2-1.73 0-1.33-0.93-1.86-2.13-1.78a1.62 1.62 0 0 0-1.63 1.87 1.71 1.71 0 0 0 1.76 1.64z">
        </path>
        <text transform="matrix(0.95 0.31 -0.31 0.95 134.5 48.15)">  +</text><text  transform="rotate(-10 60 17)" y="17.05" x="60.6">+</text><text  y="40.9" x="32.21">+</text>
        <polygon  points="57.99 37.43 54.68 44.38 50.55 37.66 57.99 37.43"></polygon><polygon  points="105.31 20.91 105.41 13.21 111.97 17.58 105.31 20.91">
        </polygon><circle  cx="29.13" cy="53.5" r="3.41"></circle><circle  cx="21.55" cy="86.1" r="3.41"></circle><circle cx="78.09" cy="43.97" r="2.09" transform="rotate(-16 -2 23)"></circle><circle cx="119.35" cy="50.83" r="2.09" transform="rotate(-16 0 33)"></circle><g><g><path d="m115.915 41.909c-0.697-0.813-1.713-1.278-2.788-1.278l-35.426 0c-0.581 0-1.045 0.465-1.045 1.045s0.465 1.045 1.045 1.045l35.426 0c0.465 0 0.929 0.203 1.22 0.552 0.29 0.348 0.436 0.813 0.377 1.278l-3.397 14.955c0 0.029 0 0.058 0 0.058 -0.203 1.249-1.307 2.178-2.555 2.178l-24.16 0c-0.581 0-1.045 0.465-1.045 1.045 0 0.581 0.465 1.045 1.045 1.045l24.16 0c2.294 0 4.211-1.626 4.588-3.891l3.397-14.955c0-0.029 0-0.058 0-0.058 0.174-1.103-0.145-2.178-0.842-3.02l0 0z"></path><path d="m82.957 73.618c-2.671 0-4.849 2.178-4.849 4.849 0 2.672 2.178 4.849 4.849 4.849 2.672 0 4.849-2.178 4.849-4.849 0-2.671-2.178-4.849-4.849-4.849zm0 7.637c-1.539 0-2.788-1.249-2.788-2.788 0-1.539 1.249-2.788 2.788-2.788 1.539 0 2.788 1.249 2.788 2.788 0 1.539-1.249 2.788-2.788 2.788z"></path><path class="st0" d="m104.503 73.618c-2.671 0-4.849 2.178-4.849 4.849 0 2.672 2.178 4.849 4.849 4.849 2.672 0 4.849-2.178 4.849-4.849 0-2.671-2.178-4.849-4.849-4.849zm0 7.637c-1.539 0-2.788-1.249-2.788-2.788 0-1.539 1.249-2.788 2.788-2.788 1.539 0 2.788 1.249 2.788 2.788 0 1.539-1.249 2.788-2.788 2.788z"></path><path class="st0" d="m108.336 68.885l-28.893 0 -2.701-10.599 -5.256-22.737c-0.348-1.336-1.539-2.265-2.933-2.265l-6.766 0c-0.581 0-1.045 0.465-1.045 1.045s0.465 1.045 1.045 1.045l6.795 0c0.436 0 0.813 0.29 0.929 0.697l4.936 21.401c0 0.087 0 0.174 0.029 0.232l0.29 1.103 0 0.029c0 0 0 0 0 0.029l2.875 11.325c0.116 0.465 0.523 0.784 0.987 0.784l0.116 0 29.561 0c0.581 0 1.045-0.465 1.045-1.045s-0.465-1.045-1.016-1.045l0 0z"></path></g><g class="a"><g class="a"><path class="st1" d="m86.732 57.444c1.887-2.207 4.995-3.485 7.84-3.601 2.207-0.087 4.443 0.436 6.359 1.481 0.697 0.377 1.684 1.045 2.12 1.51 0.29 0.29 1.074-0.058 0.755-0.377 -4.646-4.646-13.532-4.24-17.8 0.726 -0.319 0.377 0.465 0.552 0.726 0.261l0 0 0 0z"></path></g><path class="st1" d="m89.142 48.326c0.145 0.61-0.203 1.22-0.726 1.394 -0.552 0.145-1.103-0.203-1.249-0.813 -0.145-0.61 0.203-1.22 0.726-1.394 0.552-0.174 1.103 0.203 1.249 0.813z">
        </path>
        <path  d="m103.254 48.704c0.145 0.61-0.203 1.22-0.726 1.394 -0.552 0.145-1.103-0.203-1.249-0.813s0.203-1.22 0.726-1.394c0.552-0.174 1.132 0.203 1.249 0.813z">
        </path>
    </symbol>






</svg>